ffmpeg version N-73165-gf1e1730 Copyright (c) 2000-2015 the FFmpeg developers
  built with gcc 4.9.2 (GCC)
  configuration: --enable-gpl --enable-version3 --disable-w32threads --enable-avisynth --enable-bzlib --enable-fontconfig --enable-frei0r --enable-gnutls --enable-iconv --enable-libass --enable-libbluray --enable-libbs2b --enable-libcaca --enable-libdcadec --enable-libfreetype --enable-libgme --enable-libgsm --enable-libilbc --enable-libmodplug --enable-libmp3lame --enable-libopencore-amrnb --enable-libopencore-amrwb --enable-libopenjpeg --enable-libopus --enable-librtmp --enable-libschroedinger --enable-libsoxr --enable-libspeex --enable-libtheora --enable-libtwolame --enable-libvidstab --enable-libvo-aacenc --enable-libvo-amrwbenc --enable-libvorbis --enable-libvpx --enable-libwavpack --enable-libwebp --enable-libx264 --enable-libx265 --enable-libxavs --enable-libxvid --enable-lzma --enable-decklink --enable-zlib
  libavutil      54. 27.100 / 54. 27.100
  libavcodec     56. 45.100 / 56. 45.100
  libavformat    56. 38.102 / 56. 38.102
  libavdevice    56.  4.100 / 56.  4.100
  libavfilter     5. 18.100 /  5. 18.100
  libswscale      3.  1.101 /  3.  1.101
  libswresample   1.  2.100 /  1.  2.100
  libpostproc    53.  3.100 / 53.  3.100
Input #0, rawvideo, from 'pipe:':
  Duration: N/A, start: 0.000000, bitrate: 165888 kb/s
    Stream #0:0: Video: rawvideo (RGB[24] / 0x18424752), rgb24, 640x360, 165888 kb/s, 30 tbr, 30 tbn, 30 tbc
[libx264 @ 000000000310bfe0] using cpu capabilities: MMX2 SSE2Fast SSSE3 SSE4.2 AVX FMA3 AVX2 LZCNT BMI2
[libx264 @ 000000000310bfe0] profile High, level 3.0
[libx264 @ 000000000310bfe0] 264 - core 146 r2538 121396c - H.264/MPEG-4 AVC codec - Copyleft 2003-2015 - http://www.videolan.org/x264.html - options: cabac=1 ref=3 deblock=1:0:0 analyse=0x3:0x113 me=hex subme=7 psy=1 psy_rd=1.00:0.00 mixed_ref=1 me_range=16 chroma_me=1 trellis=1 8x8dct=1 cqm=0 deadzone=21,11 fast_pskip=1 chroma_qp_offset=-2 threads=12 lookahead_threads=2 sliced_threads=0 nr=0 decimate=1 interlaced=0 bluray_compat=0 constrained_intra=0 bframes=3 b_pyramid=2 b_adapt=1 b_bias=0 direct=1 weightb=1 open_gop=0 weightp=2 keyint=250 keyint_min=25 scenecut=40 intra_refresh=0 rc_lookahead=40 rc=crf mbtree=1 crf=15.0 qcomp=0.60 qpmin=0 qpmax=69 qpstep=4 ip_ratio=1.40 aq=1:1.00
Output #0, mp4, to 'C:\Users\Jonghwa\Documents\GitHub\2015RnE\ARDroneForRnE_For_Success\20151020203521.mp4':
  Metadata:
    comment         : Exported using VideoExport for Processing - https://github.com/hamoid/VideoExport-for-Processing
    encoder         : Lavf56.38.102
    Stream #0:0: Video: h264 (libx264) ([33][0][0][0] / 0x0021), yuv420p, 640x360, q=-1--1, 30 fps, 15360 tbn, 30 tbc
    Metadata:
      encoder         : Lavc56.45.100 libx264
Stream mapping:
  Stream #0:0 -> #0:0 (rawvideo (native) -> h264 (libx264))
frame=   12 fps=0.0 q=0.0 size=       0kB time=00:00:00.00 bitrate=N/A    frame=   23 fps= 22 q=0.0 size=       0kB time=00:00:00.00 bitrate=N/A    frame=   35 fps= 22 q=0.0 size=       0kB time=00:00:00.00 bitrate=N/A    frame=   48 fps= 23 q=0.0 size=       0kB time=00:00:00.00 bitrate=N/A    frame=   59 fps= 22 q=21.0 size=      63kB time=00:00:00.03 bitrate=15453.3kbits/s    frame=   72 fps= 23 q=21.0 size=     215kB time=00:00:00.46 bitrate=3780.7kbits/s    frame=   85 fps= 23 q=21.0 size=     335kB time=00:00:00.90 bitrate=3046.5kbits/s    frame=   99 fps= 23 q=21.0 size=     438kB time=00:00:01.36 bitrate=2624.8kbits/s    frame=  113 fps= 24 q=21.0 size=     540kB time=00:00:01.83 bitrate=2413.8kbits/s    frame=  125 fps= 24 q=21.0 size=     648kB time=00:00:02.23 bitrate=2376.0kbits/s    frame=  139 fps= 24 q=21.0 size=     781kB time=00:00:02.70 bitrate=2369.1kbits/s    frame=  152 fps= 24 q=21.0 size=     916kB time=00:00:03.13 bitrate=2394.3kbits/s    frame=  163 fps= 24 q=21.0 size=    1009kB time=00:00:03.50 bitrate=2362.4kbits/s    frame=  176 fps= 24 q=21.0 size=    1146kB time=00:00:03.93 bitrate=2386.9kbits/s    frame=  187 fps= 24 q=21.0 size=    1239kB time=00:00:04.30 bitrate=2359.8kbits/s    frame=  200 fps= 24 q=21.0 size=    1320kB time=00:00:04.73 bitrate=2285.1kbits/s    frame=  205 fps= 18 q=21.0 size=    1366kB time=00:00:04.90 bitrate=2283.6kbits/s    